<?xml version="1.0" standalone="no"?>
<!DOCTYPE svg PUBLIC "-//W3C//DTD SVG 20010904//EN"
 "http://www.w3.org/TR/2001/REC-SVG-20010904/DTD/svg10.dtd">
<svg version="1.0" xmlns="http://www.w3.org/2000/svg"
 width="192.000000pt" height="192.000000pt" viewBox="0 0 192.000000 192.000000"
 preserveAspectRatio="xMidYMid meet">
<metadata>
Created by potrace 1.11, written by Peter Selinger 2001-2013
</metadata>
<g transform="translate(0.000000,192.000000) scale(0.100000,-0.100000)"
fill="#000000" stroke="none">
<path d="M921 1885 c-7 -19 -16 -35 -21 -35 -5 0 -7 -7 -4 -15 4 -8 1 -15 -6
-15 -7 0 -10 -7 -6 -15 3 -8 2 -15 -3 -15 -8 0 -22 -32 -25 -55 -1 -5 -5 -13
-11 -17 -5 -4 -10 -11 -10 -15 -1 -4 -6 -17 -12 -28 -6 -11 -12 -24 -13 -30
-4 -15 -24 -59 -30 -65 -3 -3 -7 -14 -8 -25 -2 -11 -10 -24 -18 -28 -8 -5 -12
-13 -8 -18 3 -5 0 -16 -6 -24 -7 -8 -9 -15 -4 -15 9 -1 -44 -33 -58 -36 -5 -1
-10 -3 -13 -4 -3 -1 -8 -3 -13 -4 -12 -2 -116 -69 -124 -81 -4 -5 -8 -7 -8 -2
0 4 -8 -1 -18 -10 -11 -10 -17 -21 -15 -25 2 -5 -3 -8 -11 -8 -9 0 -23 -11
-32 -25 -9 -14 -21 -22 -27 -18 -6 3 -7 1 -3 -5 4 -7 2 -12 -3 -12 -6 0 -11
-5 -11 -10 0 -6 -11 -22 -25 -36 -22 -22 -26 -30 -25 -50 1 -3 -9 -14 -22 -24
-13 -11 -20 -19 -16 -20 4 0 -4 -25 -18 -55 -13 -31 -24 -66 -24 -80 0 -13 -4
-26 -8 -29 -5 -3 -10 -20 -11 -38 -1 -18 -3 -46 -4 -63 -1 -16 -6 -33 -12 -37
-6 -5 -6 -8 1 -8 7 0 11 -14 8 -35 -1 -20 0 -34 4 -31 4 2 6 -18 5 -45 -2 -27
0 -49 5 -49 4 0 9 -14 10 -32 2 -17 6 -36 11 -42 16 -20 18 -75 4 -80 -7 -3
-12 -9 -11 -13 1 -4 -3 -18 -10 -29 -6 -12 -8 -24 -5 -28 3 -3 1 -6 -5 -6 -7
0 -12 -4 -12 -9 0 -5 -5 -22 -11 -38 -6 -15 -10 -30 -9 -32 1 -2 -2 -7 -7 -10
-5 -3 -19 -31 -32 -61 -53 -125 -75 -170 -83 -170 -5 0 -6 -5 -2 -11 3 -6 1
-14 -5 -18 -6 -4 -13 -17 -16 -29 l-4 -22 875 0 c481 0 874 4 874 8 0 5 -3 12
-7 16 -5 4 -8 11 -9 14 0 4 -9 25 -19 47 -10 22 -18 43 -17 48 1 4 -2 7 -8 7
-5 0 -10 4 -10 9 0 5 -8 26 -17 47 -9 22 -18 46 -19 54 -2 8 -8 16 -13 18 -6
2 -11 10 -11 18 0 7 -9 30 -20 49 -11 20 -15 33 -8 29 9 -6 9 -3 -1 9 -7 9
-17 14 -22 11 -5 -3 -6 2 -3 11 4 8 1 22 -6 30 -7 8 -10 15 -6 15 4 0 0 10 -9
23 -8 13 -12 27 -8 30 3 4 1 7 -6 7 -8 0 -9 5 -2 18 5 9 9 20 10 25 1 4 2 9 2
12 1 3 3 10 4 15 1 6 3 11 5 13 3 4 9 40 12 69 1 16 5 28 8 28 3 0 6 25 7 55
1 40 -2 53 -10 48 -7 -4 -7 0 1 9 12 15 9 94 -4 107 -2 2 2 11 9 19 7 10 8 13
1 9 -7 -4 -14 4 -17 21 -7 34 -15 66 -17 70 -2 1 -3 5 -4 10 -1 4 -10 22 -19
40 -10 17 -14 32 -10 32 5 0 0 5 -9 11 -10 5 -18 18 -18 28 0 10 -9 26 -20 36
-11 10 -20 24 -20 32 0 8 -4 11 -10 8 -5 -3 -10 -1 -10 5 0 14 -114 130 -129
130 -6 0 -11 4 -11 9 0 5 -9 13 -20 16 -11 3 -27 13 -35 21 -8 8 -24 17 -36
19 -12 2 -27 9 -33 15 -7 5 -16 7 -19 3 -4 -3 -7 -1 -7 5 0 7 -9 12 -20 12
-13 0 -20 7 -20 19 0 11 -7 26 -15 35 -8 8 -15 19 -15 25 0 6 -4 19 -9 29 -5
9 -15 31 -22 47 -8 17 -18 33 -24 37 -5 4 -6 8 -1 8 5 0 3 7 -4 15 -7 8 -9 15
-5 15 4 0 2 7 -5 15 -6 8 -9 19 -5 24 4 7 -1 8 -12 4 -10 -3 -15 -3 -11 1 3 4
0 22 -7 41 -8 18 -11 35 -8 39 4 3 2 6 -3 6 -6 0 -21 25 -33 55 -13 30 -28 55
-35 55 -7 0 -18 -16 -25 -35z"/>
</g>
</svg>
