<?xml version="1.0" standalone="no"?>
<!DOCTYPE svg PUBLIC "-//W3C//DTD SVG 20010904//EN"
 "http://www.w3.org/TR/2001/REC-SVG-20010904/DTD/svg10.dtd">
<svg version="1.0" xmlns="http://www.w3.org/2000/svg"
 width="148.000000pt" height="148.000000pt" viewBox="0 0 148.000000 148.000000"
 preserveAspectRatio="xMidYMid meet">
<metadata>
Created by potrace 1.11, written by Peter Selinger 2001-2013
</metadata>
<g transform="translate(0.000000,148.000000) scale(0.100000,-0.100000)"
fill="#000000" stroke="none">
<path d="M740 1449 c-42 -4 -111 -20 -155 -34 -83 -28 -205 -90 -205 -105 0
-5 -8 -11 -19 -15 -22 -7 -71 -53 -121 -114 -19 -23 -53 -61 -74 -84 -109
-116 -161 -252 -154 -396 3 -55 13 -108 27 -146 13 -33 36 -98 52 -144 65
-189 180 -303 384 -379 118 -44 323 -42 450 3 11 4 38 15 60 25 22 9 51 21 65
25 59 18 170 93 236 160 79 79 141 190 169 300 19 76 19 241 -1 325 -42 179
-178 351 -345 435 -100 51 -169 68 -304 74 l-130 6 50 23 c94 42 110 51 100
50 -5 0 -44 -4 -85 -9z m-130 -92 c0 -2 -10 -12 -22 -23 l-23 -19 19 23 c18
21 26 27 26 19z m295 -199 c117 -29 233 -129 289 -248 63 -134 43 -357 -39
-429 -40 -35 -108 -71 -177 -95 -43 -14 -56 -14 -130 -1 -168 29 -342 144
-415 275 -69 122 -82 237 -35 311 104 162 308 238 507 187z"/>
</g>
</svg>
